<svg xmlns="http://www.w3.org/2000/svg" width="120" height="20" focusable="false" viewBox="0 0 120 20">
  <path fill="#6e5494" d="M0 0h120v20H0z"/>
  <path fill="#fff" d="M12 2.5a7.85 7.85 0 0 0-8 7.69 7.73 7.73 0 0 0 5.47 7.3c.4.07.55-.17.55-.37v-1.31c-2.23.46-2.7-1-2.7-1a2.07 2.07 0 0 0-.88-1.13c-.73-.47.05-.46.05-.46A1.65 1.65 0 0 1 7.7 14a1.76 1.76 0 0 0 2.33.64 1.64 1.64 0 0 1 .51-1c-1.78-.2-3.64-.86-3.64-3.8a2.93 2.93 0 0 1 .82-2.07 2.64 2.64 0 0 1 .08-2s.67-.21 2.2.79a7.82 7.82 0 0 1 4 0c1.53-1 2.2-.79 2.2-.79a2.69 2.69 0 0 1 .08 2 2.93 2.93 0 0 1 .82 2.07c0 3-1.87 3.6-3.65 3.79A1.8 1.8 0 0 1 14 15v2.11c0 .26.15.44.55.37a7.63 7.63 0 0 0 5.06-9.73A8 8 0 0 0 12 2.5m21.54 7.72c0 1.72-.8 2.81-2.08 2.81a1.17 1.17 0 0 1-1.24-.87h-.1a1.3 1.3 0 0 1-1.3.84C27.7 13 27 12.09 27 10.73s.75-2.21 1.84-2.21a1.33 1.33 0 0 1 1.16.76h.09v-.65h1v3c0 .38.2.61.54.61.6 0 1-.76 1-1.93A3.17 3.17 0 0 0 29.17 7a3.48 3.48 0 0 0-3.55 3.71 3.45 3.45 0 0 0 3.74 3.64 5.18 5.18 0 0 0 1.58-.21V15a5.64 5.64 0 0 1-1.63.22 4.26 4.26 0 0 1-4.6-4.48 4.28 4.28 0 0 1 4.51-4.48c2.56-.02 4.32 1.6 4.32 3.96zm-5.5.54c0 .82.38 1.32 1 1.32s1-.51 1-1.32-.39-1.33-1-1.33S28 9.92 28 10.76zm6.8 2.41L38 9.29V9.2h-3.13V8.12h4.68V9l-3 3.8v.1h3.05V14h-4.76zm11.21-.79a2.44 2.44 0 0 1-2.61 1.74c-1.73 0-2.77-1.15-2.77-3S41.72 8 43.43 8s2.68 1.11 2.68 3v.43H42v.07a1.46 1.46 0 0 0 1.48 1.59 1.31 1.31 0 0 0 1.31-.68zm-4-1.89h2.77a1.34 1.34 0 0 0-1.36-1.43A1.41 1.41 0 0 0 42 10.49zm5.39-2.37h1.29v.94h.09A1.76 1.76 0 0 1 50.57 8c1.31 0 2 .78 2 2.19V14h-1.31v-3.49c0-.89-.38-1.34-1.19-1.34a1.26 1.26 0 0 0-1.29 1.41V14h-1.34zm6.44 2.94c0-1.86.93-3 2.42-3a1.89 1.89 0 0 1 1.78 1h.09V5.85h1.33V14h-1.29v-.93h-.09a2 2 0 0 1-1.82 1c-1.49.03-2.42-1.14-2.42-3.01zm1.36 0c0 1.19.56 1.9 1.47 1.9s1.48-.72 1.48-1.9-.57-1.9-1.48-1.9-1.47.72-1.47 1.9zm11.04 1.32a2.44 2.44 0 0 1-2.61 1.74c-1.73 0-2.78-1.15-2.78-3S62 8 63.65 8s2.68 1.11 2.68 3v.43h-4.1v.07a1.46 1.46 0 0 0 1.47 1.59 1.3 1.3 0 0 0 1.3-.71zm-4-1.89H65a1.32 1.32 0 0 0-1.35-1.43 1.4 1.4 0 0 0-1.41 1.43zM69.89 8c1.4 0 2.27.61 2.37 1.68H71c-.1-.41-.49-.67-1.11-.67s-1.07.29-1.07.71.28.54.87.67l1 .24c1.12.25 1.64.73 1.64 1.6 0 1.13-1 1.88-2.5 1.88s-2.39-.64-2.49-1.7h1.36c.13.43.55.69 1.21.69s1.14-.3 1.14-.73-.25-.54-.81-.67l-1-.24c-1.13-.26-1.66-.78-1.66-1.67C67.54 8.74 68.5 8 69.89 8zm7.49.12h1.54l-2.34 2.52L79.09 14h-1.62l-1.88-2.52-.47.47V14h-1.33V5.85h1.33v4.67h.09zm2.33 6.44h1.34c.08.4.56.66 1.29.66.91 0 1.44-.43 1.44-1.17v-1.11h-.09a1.93 1.93 0 0 1-1.8 1c-1.48 0-2.4-1.15-2.4-2.91s.93-3 2.43-3a2 2 0 0 1 1.82 1h.09v-.91h1.28V14c0 1.36-1.08 2.21-2.8 2.21-1.51.02-2.49-.64-2.6-1.65zM83.8 11c0-1.12-.56-1.84-1.49-1.84s-1.45.72-1.45 1.84.52 1.83 1.45 1.83 1.49-.71 1.49-1.83zm2.62 1.33c0-1.06.8-1.67 2.23-1.76l1.51-.09V10c0-.58-.39-.9-1.11-.9s-1 .22-1.15.61h-1.26c.11-1 1.08-1.69 2.48-1.69s2.36.73 2.36 2v4h-1.29v-.81h-.09a1.94 1.94 0 0 1-1.74.91 1.77 1.77 0 0 1-1.94-1.79zm3.74-.48v-.47l-1.33.08c-.74 0-1.09.32-1.09.8s.42.79 1 .79a1.29 1.29 0 0 0 1.42-1.2zm2.92-3.73h1.28V9h.09A1.56 1.56 0 0 1 96 8a2.15 2.15 0 0 1 .55.06v1.26a3 3 0 0 0-.68-.07 1.34 1.34 0 0 0-1.47 1.36V14h-1.32zm4.13 2.94c0-1.86.94-3 2.42-3a1.88 1.88 0 0 1 1.78 1h.1V5.85h1.33V14h-1.29v-.93h-.09a2 2 0 0 1-1.83 1c-1.49.03-2.42-1.14-2.42-3.01zm1.37 0c0 1.19.55 1.9 1.46 1.9s1.48-.72 1.48-1.9-.52-1.9-1.52-1.9-1.42.72-1.42 1.9zm11.03 1.32a2.44 2.44 0 0 1-2.61 1.74c-1.73 0-2.77-1.15-2.77-3S105.29 8 107 8s2.68 1.11 2.68 3v.43h-4.11v.07a1.46 1.46 0 0 0 1.43 1.56 1.31 1.31 0 0 0 1.31-.68zm-4-1.89h2.77A1.34 1.34 0 0 0 107 9.06a1.41 1.41 0 0 0-1.43 1.43zM111 8.12h1.28v.94h.09A1.76 1.76 0 0 1 114.13 8c1.31 0 2 .78 2 2.19V14h-1.33v-3.49c0-.89-.38-1.34-1.19-1.34a1.26 1.26 0 0 0-1.29 1.41V14H111z"/>
</svg>
