<svg xmlns="http://www.w3.org/2000/svg" style="width:100%;height:100%;transform:translate3d(0,0,0)" width="476" height="403" focusable="false" viewBox="0 0 476 403">
  <g clip-path="url(#animationMask_MRM1ck5VdP)">
    <g display="block">
      <path fill="#FFE200" d="M63.147 276.5c-27.595.08-50.067-22.26-50.147-49.853-.08-27.595 22.259-50.066 49.853-50.147 27.595-.08 50.066 22.259 50.147 49.853.08 27.595-22.259 50.066-49.853 50.147z"/>
      <path fill="none" d="M63.147 276.5c-27.595.08-50.067-22.26-50.147-49.853-.08-27.595 22.259-50.066 49.853-50.147 27.595-.08 50.066 22.259 50.147 49.853.08 27.595-22.259 50.066-49.853 50.147z"/>
    </g>
    <g display="block">
      <path fill="currentColor" d="M238.147 251.5c-27.595.08-50.066-22.259-50.147-49.853-.08-27.595 22.259-50.066 49.853-50.147 27.595-.08 50.066 22.259 50.147 49.853.08 27.595-22.259 50.066-49.853 50.147z"/>
      <path fill="none" d="M238.147 251.5c-27.595.08-50.066-22.259-50.147-49.853-.08-27.595 22.259-50.066 49.853-50.147 27.595-.08 50.066 22.259 50.147 49.853.08 27.595-22.259 50.066-49.853 50.147z"/>
    </g>
    <g display="block">
      <path fill="#0052FF" d="M413.147 251.5c-27.595.08-50.066-22.259-50.147-49.853-.08-27.595 22.259-50.066 49.853-50.147 27.595-.08 50.066 22.259 50.147 49.853.08 27.595-22.259 50.066-49.853 50.147z"/>
      <path fill="none" d="M413.147 251.5c-27.595.08-50.066-22.259-50.147-49.853-.08-27.595 22.259-50.066 49.853-50.147 27.595-.08 50.066 22.259 50.147 49.853.08 27.595-22.259 50.066-49.853 50.147z"/>
    </g>
  </g>
</svg>
